<svg width="104" height="104" viewBox="0 0 104 104" fill="none" xmlns="http://www.w3.org/2000/svg">
<path d="M88.8333 10.8333H15.1666L21.6666 84.5L52 93.1667L82.3333 84.5L88.8333 10.8333Z" fill="#0277BD"/>
<path d="M52 17.3333V86.45L76.2667 79.5167L81.6833 17.3333H52Z" fill="#039BE5"/>
<path d="M71.7167 28.1667H52V36.8333H62.6167L61.9667 45.5H52V54.1667H61.5333L60.8833 63.9167L52 66.95V76.05L69.1167 70.4167L70.6333 45.5L71.7167 28.1667Z" fill="white"/>
<path d="M52 28.1667V36.8333H32.7167L32.0667 28.1667H52ZM42.0333 45.5L42.4667 54.1667H52V45.5H42.0333ZM42.9 58.5H34.2333L34.8833 70.4167L52 76.05V66.95L43.1166 63.9167L42.9 58.5Z" fill="#EEEEEE"/>
</svg>
