<svg width="104" height="104" viewBox="0 0 104 104" fill="none" xmlns="http://www.w3.org/2000/svg">
<path d="M56.3334 36.8333H39C30.6237 36.8333 23.8334 30.043 23.8334 21.6667C23.8334 13.2903 30.6237 6.5 39 6.5H56.3334V36.8333Z" fill="#E64A19"/>
<path d="M54.1667 67.1666H39C30.6237 67.1666 23.8334 60.3763 23.8334 52C23.8334 43.6236 30.6237 36.8333 39 36.8333H54.1667V67.1666Z" fill="#7C4DFF"/>
<path d="M39 97.5C30.6237 97.5 23.8334 90.7097 23.8334 82.3334C23.8334 73.957 30.6237 67.1667 39 67.1667H54.1667V82.3334C54.1667 90.7097 47.3764 97.5 39 97.5Z" fill="#66BB6A"/>
<path d="M69.3333 36.8333H54.1666V6.5H69.3333C77.7096 6.5 84.5 13.2903 84.5 21.6667C84.5 30.043 77.7096 36.8333 69.3333 36.8333Z" fill="#FF7043"/>
<path d="M69.3333 67.1666C77.7096 67.1666 84.5 60.3763 84.5 52C84.5 43.6237 77.7096 36.8333 69.3333 36.8333C60.957 36.8333 54.1666 43.6237 54.1666 52C54.1666 60.3763 60.957 67.1666 69.3333 67.1666Z" fill="#29B6F6"/>
</svg>
