<svg width="104" height="104" viewBox="0 0 104 104" fill="none" xmlns="http://www.w3.org/2000/svg">
<path d="M13 91V13H91V91H13Z" fill="#FFD600"/>
<path d="M63.9991 71.3852C65.4984 73.8205 67.1277 76.154 70.5792 76.154C73.4782 76.154 74.9992 74.7132 74.9992 72.7198C74.9992 70.3343 73.4262 69.4872 70.2369 68.0983L68.4884 67.353C63.4422 65.2123 60.0861 62.53 60.0861 56.8642C60.0861 51.6425 64.0836 47.6688 70.3301 47.6688C74.7782 47.6688 77.9741 49.2093 80.2794 53.2437L74.8324 56.7255C73.6342 54.5848 72.3386 53.742 70.3301 53.742C68.2804 53.742 66.9826 55.0355 66.9826 56.7255C66.9826 58.8142 68.2826 59.6592 71.2834 60.9527L73.0319 61.698C78.9794 64.2308 82.3334 66.8178 82.3334 72.6332C82.3334 78.8992 77.3847 82.3333 70.7417 82.3333C64.2439 82.3333 60.5541 79.0725 58.5001 75.036L63.9991 71.3852ZM38.8961 71.5628C39.9924 73.5258 41.6586 75.036 44.0549 75.036C46.3472 75.036 47.6667 74.1303 47.6667 70.6095V47.6667H54.8882V71.7188C54.8882 79.014 50.6567 82.3333 44.4774 82.3333C38.8939 82.3333 34.8639 78.5503 33.2216 75.036L38.8961 71.5628Z" fill="#000001"/>
</svg>
