<svg width="104" height="104" viewBox="0 0 104 104" fill="none" xmlns="http://www.w3.org/2000/svg">
<path d="M91 13H13V91H91V13Z" fill="#1976D2"/>
<path d="M59.5617 47.6667H30.8252V54.7387H41.132V86.6667H49.2982V54.7387H59.5617V47.6667Z" fill="white"/>
<path d="M84.9203 56.5153C84.9203 56.5153 81.0485 53.9327 76.6719 53.9327C72.2952 53.9327 70.72 56.0127 70.72 58.2357C70.72 63.973 86.7122 63.3988 86.7122 74.945C86.7122 92.7312 62.3285 84.8423 62.3285 84.8423V76.31C62.3285 76.31 66.9912 79.8243 72.5833 79.8243C78.1755 79.8243 77.9632 76.167 77.9632 75.6643C77.9632 70.3582 62.114 70.3582 62.114 58.5953C62.114 42.6032 85.2064 48.9125 85.2064 48.9125L84.9203 56.5153Z" fill="white"/>
</svg>
