<svg width="104" height="104" viewBox="0 0 104 104" fill="none" xmlns="http://www.w3.org/2000/svg">
<path d="M91.4333 47.8833L56.1166 12.5666C55.0333 11.4833 53.5166 10.8333 51.9999 10.8333C50.4833 10.8333 48.9666 11.4833 47.8833 12.5666L40.2999 20.15L49.1833 29.0333C50.0499 28.6 50.9166 28.3833 51.9999 28.3833C55.6833 28.3833 58.4999 31.2 58.4999 34.8833C58.4999 35.9666 58.2833 36.8333 57.8499 37.7L66.5166 46.3666C67.3833 45.9333 68.2499 45.7166 69.3333 45.7166C73.0166 45.7166 75.8333 48.5333 75.8333 52.2166C75.8333 55.9 73.0166 58.7166 69.3333 58.7166C65.6499 58.7166 62.8333 55.9 62.8333 52.2166C62.8333 51.1333 63.0499 50.2666 63.4833 49.4L54.8166 40.7333C54.5999 40.7333 54.3833 40.95 54.1666 40.95V63.4833C56.7666 64.35 58.4999 66.7333 58.4999 69.55C58.4999 73.2333 55.6833 76.05 51.9999 76.05C48.3166 76.05 45.4999 73.2333 45.4999 69.55C45.4999 66.7333 47.2333 64.35 49.8333 63.4833V40.7333C47.2333 39.8666 45.4999 37.4833 45.4999 34.6666C45.4999 33.5833 45.7166 32.7166 46.1499 31.85L37.2666 22.9666L12.5666 47.8833C11.4833 48.9666 10.8333 50.4833 10.8333 52C10.8333 53.5166 11.4833 55.0333 12.5666 56.1166L47.8833 91.4333C48.9666 92.5166 50.4833 93.1666 51.9999 93.1666C53.5166 93.1666 55.0333 92.5166 56.1166 91.4333L91.4333 56.1166C92.5166 55.0333 93.1666 53.5166 93.1666 52C93.1666 50.4833 92.5166 48.9666 91.4333 47.8833Z" fill="#F4511E"/>
</svg>
