<svg width="104" height="104" viewBox="0 0 104 104" fill="none" xmlns="http://www.w3.org/2000/svg">
<path d="M52 59.28C56.0206 59.28 59.28 56.0206 59.28 52C59.28 47.9794 56.0206 44.72 52 44.72C47.9793 44.72 44.72 47.9794 44.72 52C44.72 56.0206 47.9793 59.28 52 59.28Z" fill="#39C1D7"/>
<path d="M51.9999 60.32C47.4125 60.32 43.6799 56.5874 43.6799 52C43.6799 47.4126 47.4125 43.68 51.9999 43.68C56.5874 43.68 60.3199 47.4126 60.3199 52C60.3199 56.5874 56.5874 60.32 51.9999 60.32ZM51.9999 45.76C48.5586 45.76 45.7599 48.5586 45.7599 52C45.7599 55.4414 48.5586 58.24 51.9999 58.24C55.4413 58.24 58.2399 55.4414 58.2399 52C58.2399 48.5586 55.4413 45.76 51.9999 45.76Z" fill="#1F212B"/>
<path d="M92.04 52C92.04 46.409 85.307 41.5699 74.8612 38.6901C77.5465 28.1903 76.7197 19.9337 71.9212 17.1319C70.0284 16.0264 67.732 15.8247 65.0967 16.5298C61.126 17.5927 56.576 20.7002 52 25.2647C47.424 20.7002 42.874 17.5937 38.9032 16.5298C36.2679 15.8236 33.9716 16.0264 32.0788 17.1319C27.2802 19.9337 26.4534 28.1892 29.1387 38.6901C18.6929 41.5699 11.96 46.409 11.96 52C11.96 57.5911 18.6929 62.4302 29.1387 65.311C26.4534 75.8108 27.2802 84.0674 32.0788 86.8691C33.2352 87.5441 34.5415 87.8842 35.985 87.8831C36.9033 87.8831 37.8778 87.7458 38.9032 87.4713C42.874 86.4074 47.424 83.3009 52 78.7363C56.576 83.3009 61.126 86.4074 65.0967 87.4713C66.1221 87.7458 67.0966 87.8831 68.0149 87.8831C69.4584 87.8831 70.7647 87.5451 71.9212 86.8691C76.7197 84.0674 77.5455 75.8108 74.8612 65.311C85.307 62.4302 92.04 57.5911 92.04 52ZM65.9037 19.5427C66.6577 19.3419 67.3566 19.24 68.0004 19.24C68.8948 19.24 69.681 19.4355 70.3476 19.8255C73.5633 21.7038 74.2196 28.5823 71.8244 37.933C68.5245 37.1904 64.924 36.6319 61.0979 36.2866C58.8525 33.0491 56.5167 30.1018 54.1632 27.5205C58.3419 23.3324 62.4416 20.4703 65.9037 19.5427ZM63.1852 58.551C61.959 60.6996 60.6684 62.7578 59.3444 64.7275C56.994 64.9033 54.5438 65 52 65C49.4561 65 47.0059 64.9033 44.6565 64.7275C43.3326 62.7578 42.042 60.6996 40.8158 58.551C39.548 56.3295 38.4103 54.1414 37.3911 52.0011C38.4103 49.8607 39.548 47.6726 40.8158 45.4501C42.043 43.3004 43.3326 41.2423 44.6576 39.2725C47.0069 39.0967 49.4561 39 52 39C54.5438 39 56.993 39.0967 59.3434 39.2725C60.6673 41.2423 61.958 43.3015 63.1852 45.4501C64.4529 47.6715 65.5907 49.8597 66.6099 52.0011C65.5907 54.1414 64.4529 56.3295 63.1852 58.551ZM68.2697 55.6868C69.3524 58.2463 70.2468 60.71 70.9706 63.0521C68.6046 63.5794 66.0504 64.0193 63.3224 64.3448C64.1981 62.9658 65.0613 61.5555 65.8944 60.0964C66.7378 58.6207 67.5251 57.1491 68.2697 55.6868ZM52 74.2113C50.2985 72.3299 48.6002 70.2468 46.9414 67.9931C48.5971 68.0732 50.2819 68.12 52 68.12C53.718 68.12 55.4028 68.0732 57.0585 67.9931C55.3997 70.2458 53.7014 72.3289 52 74.2113ZM40.6764 64.3448C37.9496 64.0193 35.3943 63.5794 33.0283 63.0521C33.7521 60.71 34.6465 58.2452 35.7292 55.6868C36.4738 57.1491 37.2621 58.6207 38.1045 60.0964C38.9386 61.5566 39.8008 62.9668 40.6764 64.3448ZM35.7302 48.3143C34.6476 45.7548 33.7521 43.29 33.0293 40.9469C35.3953 40.4196 37.9506 39.9797 40.6785 39.6542C39.8018 41.0332 38.9396 42.4445 38.1066 43.9036C37.2621 45.3804 36.4748 46.852 35.7302 48.3143ZM52 29.7898C53.7014 31.6711 55.3997 33.7543 57.0585 36.0079C55.4028 35.9268 53.718 35.88 52 35.88C50.2819 35.88 48.5971 35.9268 46.9414 36.0069C48.6002 33.7543 50.2985 31.6711 52 29.7898ZM65.8944 43.9046C65.0613 42.4445 64.1981 41.0343 63.3224 39.6552C66.0504 39.9807 68.6046 40.4207 70.9716 40.9479C70.2478 43.2911 69.3534 45.7548 68.2708 48.3153C67.5251 46.852 66.7378 45.3804 65.8944 43.9046ZM33.6523 19.8255C34.32 19.4355 35.1041 19.24 35.9996 19.24C36.6423 19.24 37.3432 19.3419 38.0962 19.5427C41.5584 20.4703 45.658 23.3314 49.8368 27.5195C47.4832 30.1007 45.1474 33.0491 42.902 36.2856C39.0759 36.6309 35.4744 37.1894 32.1755 37.9319C29.7804 28.5813 30.4366 21.7027 33.6523 19.8255ZM15.08 52C15.08 48.2602 20.697 44.2624 29.9884 41.703C30.9961 44.9883 32.319 48.4484 33.9466 52C32.319 55.5516 30.9961 59.0117 29.9884 62.2971C20.697 59.7376 15.08 55.7399 15.08 52ZM38.0962 84.4574C36.2939 84.9379 34.7994 84.8432 33.6523 84.1755C30.4366 82.2973 29.7814 75.4187 32.1755 66.0681C35.4744 66.8107 39.0759 67.3691 42.901 67.7144C45.1464 70.9519 47.4822 73.8993 49.8357 76.4816C45.658 80.6687 41.5584 83.5297 38.0962 84.4574ZM70.3476 84.1755C69.2005 84.8453 67.7071 84.9389 65.9037 84.4574C62.4416 83.5297 58.3419 80.6687 54.1632 76.4806C56.5167 73.8993 58.8525 70.9509 61.0979 67.7134C64.924 67.3681 68.5245 66.8096 71.8234 66.0671C74.2196 75.4187 73.5633 82.2973 70.3476 84.1755ZM74.0116 62.2971C73.0038 59.0117 71.6809 55.5516 70.0533 52C71.6809 48.4484 73.0038 44.9873 74.0116 41.703C83.3029 44.2624 88.92 48.2602 88.92 52C88.92 55.7399 83.3029 59.7376 74.0116 62.2971Z" fill="#39C1D7"/>
<path d="M35.9787 88.4021C34.4489 88.4021 33.0491 88.037 31.8177 87.3174C27.0004 84.5042 25.8034 76.6303 28.5126 65.6739C17.6539 62.5862 11.4399 57.616 11.4399 52C11.4399 46.384 17.6539 41.4138 28.5115 38.3261C25.8034 27.3697 27.0004 19.4958 31.8177 16.6826C33.8332 15.5033 36.2616 15.2828 39.0384 16.0274C42.9051 17.0633 47.3792 20.0002 51.9999 24.5336C56.6217 20.0002 61.0958 17.0633 64.9615 16.0274C67.7372 15.2849 70.1667 15.5054 72.1832 16.6826C76.9995 19.4958 78.1965 27.3697 75.4883 38.3261C86.3459 41.4138 92.5599 46.384 92.5599 52C92.5599 57.616 86.3459 62.5862 75.4883 65.6739C78.1965 76.6303 77.0005 84.5031 72.1832 87.3174C70.1791 88.4874 67.7258 88.713 64.9625 87.9726C61.0947 86.9367 56.6207 83.9998 51.9999 79.4674C47.3792 83.9998 42.9051 86.9378 39.0384 87.9726C37.9745 88.2575 36.947 88.4021 35.985 88.4021C35.9829 88.4021 35.9808 88.4021 35.9787 88.4021ZM35.9881 16.639C34.6351 16.639 33.4151 16.953 32.3408 17.5812C27.9479 20.1469 26.9391 27.9895 29.642 38.5611C29.7117 38.8357 29.5495 39.1165 29.2759 39.1914C18.7595 42.0909 12.4799 46.8801 12.4799 52C12.4799 57.1199 18.7595 61.9091 29.277 64.8086C29.5505 64.8835 29.7127 65.1643 29.6431 65.4389C26.9391 76.0105 27.9479 83.8542 32.3408 86.4188C33.412 87.0438 34.6361 87.361 35.9787 87.361C35.9808 87.361 35.9829 87.361 35.985 87.361C36.8565 87.361 37.7925 87.229 38.7691 86.9679C42.5619 85.9518 47.0111 82.9785 51.6328 78.3671C51.8356 78.1654 52.1643 78.1654 52.3671 78.3671C56.9888 82.9774 61.4379 85.9508 65.2308 86.9679C67.7206 87.6325 69.8952 87.4474 71.6591 86.4188C76.052 83.8531 77.0608 76.0105 74.3568 65.4389C74.2871 65.1643 74.4494 64.8835 74.7229 64.8086C85.2404 61.9091 91.5199 57.1199 91.5199 52C91.5199 46.8801 85.2404 42.0909 74.7229 39.1914C74.4494 39.1165 74.2871 38.8357 74.3568 38.5611C77.0598 27.9895 76.051 20.1458 71.658 17.5812C69.8911 16.5485 67.7279 16.3644 65.2298 17.0321C61.4369 18.0482 56.9888 21.0215 52.366 25.6329C52.1632 25.8346 51.8346 25.8346 51.6318 25.6329C47.009 21.0215 42.5609 18.0482 38.768 17.0321C37.7894 16.77 36.8617 16.639 35.9881 16.639ZM68.0014 85.279C67.3119 85.279 66.5672 85.1729 65.7695 84.9597C62.3053 84.031 58.1651 81.2271 53.795 76.8477C53.5995 76.6511 53.5922 76.335 53.7783 76.1301C56.1339 73.5467 58.4521 70.615 60.6704 67.417C60.7578 67.2901 60.8971 67.209 61.0511 67.1954C64.8075 66.8564 68.3935 66.3062 71.71 65.5595C71.9815 65.4982 72.2581 65.6646 72.3278 65.9381C74.7572 75.426 74.0989 82.5864 70.6097 84.6238C69.8619 85.0606 68.9894 85.279 68.0014 85.279ZM54.8818 76.4618C58.9908 80.5116 62.8409 83.0981 66.0379 83.955C67.7008 84.3991 69.0632 84.3222 70.0855 83.7262C73.0547 81.9915 73.5768 75.3303 71.4438 66.6838C68.2947 67.3691 64.9157 67.8818 61.387 68.2094C59.2903 71.2171 57.1043 73.9898 54.8818 76.4618ZM35.9985 85.279C35.0105 85.279 34.1379 85.0606 33.3902 84.6248C29.901 82.5864 29.2416 75.426 31.6721 65.9381C31.7418 65.6656 32.0184 65.5023 32.2899 65.5595C35.6054 66.3062 39.1913 66.8564 42.9488 67.1954C43.1017 67.209 43.2421 67.2901 43.3295 67.417C45.5478 70.615 47.8659 73.5467 50.2215 76.1301C50.4087 76.335 50.4015 76.6511 50.2049 76.8477C45.8348 81.2261 41.6946 84.031 38.2314 84.9597C37.4327 85.1718 36.687 85.279 35.9985 85.279ZM32.5561 66.6838C30.4231 75.3293 30.9451 81.9915 33.9143 83.7262C34.9356 84.3211 36.298 84.3991 37.962 83.955C41.159 83.0981 45.0091 80.5106 49.1181 76.4618C46.8967 73.9898 44.7106 71.2171 42.6139 68.2094C39.0852 67.8818 35.7052 67.3691 32.5561 66.6838ZM51.9999 74.7302C51.8533 74.7302 51.7129 74.6678 51.6141 74.5586C49.8846 72.6461 48.1717 70.5401 46.5223 68.2999C46.4037 68.1387 46.3881 67.9224 46.4827 67.7456C46.5774 67.5688 46.7542 67.4606 46.9663 67.4721C50.4046 67.6395 53.5953 67.6395 57.0335 67.4721C57.2415 67.4596 57.4225 67.5688 57.5171 67.7456C57.6118 67.9224 57.5972 68.1377 57.4776 68.2999C55.8282 70.539 54.1153 72.645 52.3858 74.5586C52.287 74.6678 52.1466 74.7302 51.9999 74.7302ZM48.0136 68.561C49.3147 70.2822 50.6521 71.916 51.9999 73.4323C53.3488 71.916 54.6852 70.2832 55.9863 68.561C53.2698 68.665 50.7301 68.665 48.0136 68.561ZM51.9999 65.52C49.5362 65.52 47.0527 65.4285 44.617 65.2465C44.4579 65.235 44.3133 65.1508 44.2239 65.0177C42.8334 62.9491 41.5344 60.8598 40.3634 58.8089C39.1362 56.6582 37.9776 54.443 36.921 52.2236C36.8534 52.0822 36.8534 51.9178 36.921 51.7764C37.9776 49.557 39.1362 47.3418 40.3634 45.1911C41.5334 43.1423 42.8323 41.053 44.2249 38.9813C44.3133 38.8492 44.4589 38.765 44.618 38.7525C49.4894 38.3885 54.5115 38.3885 59.3819 38.7525C59.541 38.7639 59.6855 38.8482 59.775 38.9813C61.1675 41.053 62.4665 43.1423 63.6365 45.1911C64.8637 47.3418 66.0223 49.557 67.0789 51.7764C67.1465 51.9178 67.1465 52.0822 67.0789 52.2236C66.0223 54.443 64.8637 56.6582 63.6365 58.8089C62.4655 60.8598 61.1665 62.9491 59.776 65.0177C59.6876 65.1498 59.542 65.234 59.3829 65.2465C56.9472 65.4285 54.4637 65.52 51.9999 65.52ZM44.9467 64.2273C49.6048 64.5622 54.3951 64.5622 59.0522 64.2273C60.3761 62.2482 61.6137 60.2524 62.7327 58.292C63.9059 56.2359 65.0155 54.1206 66.0327 52C65.0155 49.8794 63.9059 47.763 62.7327 45.708C61.6147 43.7497 60.3771 41.7539 59.0511 39.7717C54.393 39.4368 49.6038 39.4368 44.9456 39.7717C43.6207 41.7539 42.382 43.7497 41.264 45.708C40.0909 47.7641 38.9812 49.8794 37.9641 52C38.9812 54.1206 40.0909 56.237 41.264 58.292C42.3851 60.2534 43.6227 62.2482 44.9467 64.2273ZM63.3235 64.8658C63.1467 64.8658 62.9792 64.7754 62.8835 64.6235C62.7764 64.453 62.7775 64.2366 62.8846 64.0671C63.8497 62.5477 64.6869 61.1645 65.443 59.8395C66.2375 58.448 67.0321 56.9712 67.8069 55.4518C67.8984 55.2718 68.0908 55.1647 68.2884 55.1689C68.4902 55.1762 68.6701 55.2989 68.7491 55.4861C69.8047 57.981 70.7189 60.476 71.4677 62.9002C71.5114 63.0386 71.4937 63.1894 71.4209 63.3142C71.3481 63.44 71.2254 63.5294 71.0839 63.5606C68.6399 64.1066 66.0493 64.5445 63.3848 64.8627C63.364 64.8648 63.3432 64.8658 63.3235 64.8658ZM68.2198 56.9202C67.602 58.1038 66.9739 59.255 66.3467 60.3543C65.7404 61.4172 65.0821 62.5165 64.3499 63.6917C66.3987 63.4192 68.3955 63.075 70.306 62.6652C69.7059 60.7786 69.0071 58.8536 68.2198 56.9202ZM40.6764 64.8658C40.6556 64.8658 40.6348 64.8648 40.614 64.8627C37.9506 64.5434 35.3599 64.1056 32.9159 63.5596C32.7745 63.5284 32.6528 63.439 32.579 63.3131C32.5062 63.1873 32.4895 63.0375 32.5322 62.8992C33.281 60.4739 34.1951 57.98 35.2507 55.485C35.3298 55.2989 35.5097 55.1751 35.7115 55.1678C35.9007 55.1481 36.1015 55.2708 36.193 55.4507C36.9678 56.9702 37.7623 58.447 38.5569 59.8385C39.314 61.1634 40.1512 62.5466 41.1153 64.0661C41.2235 64.2356 41.2235 64.4519 41.1163 64.6225C41.0207 64.7754 40.8543 64.8658 40.6764 64.8658ZM33.6949 62.6652C35.6054 63.075 37.6022 63.4192 39.651 63.6917C38.9178 62.5165 38.2605 61.4172 37.6542 60.3543C37.026 59.255 36.3989 58.1027 35.7811 56.9202C34.9928 58.8536 34.2939 60.7786 33.6949 62.6652ZM74.0115 62.817C73.7879 62.817 73.5831 62.6725 73.5144 62.4489C72.5004 59.1427 71.1765 55.7003 69.5811 52.2174C69.5177 52.0801 69.5177 51.921 69.5811 51.7837C71.1765 48.3007 72.5004 44.8573 73.5155 41.5501C73.5987 41.2807 73.8836 41.1299 74.1509 41.2017C83.5816 43.8006 89.4399 47.9378 89.4399 52C89.4399 56.0622 83.5806 60.1994 74.1488 62.7983C74.1031 62.8108 74.0563 62.817 74.0115 62.817ZM70.6253 52C72.1187 55.2812 73.374 58.5281 74.3579 61.6595C82.9056 59.2228 88.3999 55.4549 88.3999 52C88.3999 48.5451 82.9056 44.7772 74.3579 42.3405C73.373 45.473 72.1177 48.7198 70.6253 52ZM29.9883 62.817C29.9426 62.817 29.8968 62.8108 29.85 62.7983C20.4193 60.1994 14.5599 56.0622 14.5599 52C14.5599 47.9378 20.4183 43.8006 29.85 41.2017C30.1183 41.1299 30.4023 41.2807 30.4855 41.5501C31.5005 44.8573 32.8244 48.3007 34.4198 51.7837C34.4832 51.921 34.4832 52.079 34.4198 52.2174C32.8234 55.7014 31.5005 59.1438 30.4865 62.4489C30.4179 62.6725 30.2119 62.817 29.9883 62.817ZM29.642 42.3405C21.0943 44.7772 15.5999 48.5451 15.5999 52C15.5999 55.4549 21.0943 59.2228 29.642 61.6595C30.6269 58.5281 31.8811 55.2822 33.3746 52C31.8822 48.7198 30.6269 45.473 29.642 42.3405ZM68.2707 48.8353C68.0752 48.8353 67.8963 48.7261 67.8069 48.5514C67.0196 47.0038 66.2459 45.5676 65.444 44.1626C64.689 42.8397 63.8518 41.4565 62.8846 39.9339C62.7764 39.7644 62.7764 39.5481 62.8835 39.3775C62.9907 39.208 63.182 39.1144 63.3859 39.1383C66.0514 39.4576 68.642 39.8954 71.086 40.4404C71.2275 40.4716 71.3491 40.561 71.423 40.6869C71.4958 40.8127 71.5124 40.9625 71.4698 41.1008C70.7199 43.5302 69.8047 46.0252 68.7512 48.517C68.6722 48.7032 68.4923 48.827 68.2905 48.8342C68.2822 48.8353 68.2759 48.8353 68.2707 48.8353ZM66.3457 43.6467C66.9811 44.7595 67.5989 45.891 68.2187 47.0808C69.005 45.1506 69.7039 43.2234 70.3039 41.3348C68.3935 40.925 66.3967 40.5808 64.3468 40.3083C65.0831 41.4856 65.7404 42.5849 66.3457 43.6467ZM35.7291 48.8353C35.7229 48.8353 35.7167 48.8353 35.7104 48.8353C35.5087 48.828 35.3287 48.7053 35.2497 48.5181C34.1962 46.0262 33.281 43.5313 32.5311 41.1018C32.4875 40.9635 32.5051 40.8127 32.5779 40.6879C32.6507 40.5621 32.7735 40.4726 32.9149 40.4414C35.3589 39.8954 37.9495 39.4576 40.6151 39.1394C40.8179 39.1186 41.0103 39.209 41.1174 39.3786C41.2245 39.5491 41.2235 39.7654 41.1163 39.935C40.1491 41.4575 39.3119 42.8407 38.5569 44.1636C37.7551 45.5686 36.9813 47.0038 36.194 48.5524C36.1035 48.7261 35.9247 48.8353 35.7291 48.8353ZM33.6949 41.3348C34.295 43.2234 34.9949 45.1506 35.7801 47.0808C36.401 45.891 37.0177 44.7595 37.6531 43.6467C38.2595 42.5849 38.9167 41.4856 39.651 40.3083C37.6022 40.5808 35.6054 40.925 33.6949 41.3348ZM71.8255 38.453C71.787 38.453 71.7495 38.4488 71.7111 38.4405C68.3955 37.6938 64.8086 37.1436 61.0511 36.8046C60.8982 36.791 60.7578 36.7099 60.6704 36.583C58.4521 33.384 56.1329 30.4533 53.7783 27.871C53.5911 27.6661 53.5984 27.3499 53.795 27.1534C58.164 22.775 62.3053 19.969 65.7695 19.0414C67.7133 18.5214 69.3451 18.6389 70.6097 19.3762C74.0989 21.4146 74.7583 28.575 72.3288 38.063C72.2685 38.2959 72.0584 38.453 71.8255 38.453ZM61.3859 35.7906C64.9147 36.1182 68.2947 36.6309 71.4438 37.3162C73.5768 28.6707 73.0547 22.0085 70.0845 20.2738C69.0663 19.6799 67.7019 19.6019 66.0379 20.045C62.8409 20.9019 58.9898 23.4894 54.8807 27.5392C57.1032 30.0092 59.2893 32.7818 61.3859 35.7906ZM32.1744 38.453C31.9415 38.453 31.7314 38.2959 31.6711 38.0619C29.2416 28.574 29.8999 21.4146 33.3891 19.3762C33.3891 19.3762 33.3891 19.3762 33.3902 19.3762C34.6548 18.6389 36.2887 18.5214 38.2293 19.0414C41.6946 19.9701 45.8348 22.775 50.2039 27.1534C50.3994 27.3499 50.4067 27.6661 50.2205 27.871C47.8659 30.4533 45.5467 33.385 43.3284 36.583C43.2411 36.7099 43.1017 36.791 42.9478 36.8046C39.1913 37.1436 35.6043 37.6938 32.2878 38.4405C32.2503 38.4488 32.2129 38.453 32.1744 38.453ZM33.9143 20.2738C30.9451 22.0085 30.4231 28.6707 32.5551 37.3162C35.7042 36.6309 39.0842 36.1182 42.6129 35.7906C44.7106 32.7818 46.8956 30.0092 49.1171 27.5382C45.008 23.4884 41.1579 20.9009 37.9599 20.0439C36.3032 19.6019 34.9367 19.6789 33.9143 20.2738ZM57.0585 36.5269C57.0502 36.5269 57.0419 36.5269 57.0335 36.5269C53.5953 36.3594 50.4056 36.3594 46.9674 36.5269C46.7531 36.5321 46.5784 36.4291 46.4838 36.2534C46.3891 36.0766 46.4037 35.8613 46.5233 35.699C48.1738 33.4578 49.8867 31.3518 51.6151 29.4403C51.8127 29.223 52.1892 29.223 52.3868 29.4403C54.1143 31.3508 55.8271 33.4568 57.4787 35.699C57.5972 35.8602 57.6128 36.0766 57.5182 36.2534C57.4256 36.4218 57.2488 36.5269 57.0585 36.5269ZM51.9999 35.36C53.2916 35.36 54.628 35.387 55.9863 35.4401C54.6842 33.7168 53.3467 32.083 51.9999 30.5687C50.6531 32.084 49.3157 33.7168 48.0136 35.4401C49.3719 35.387 50.7083 35.36 51.9999 35.36Z" fill="#1F212B"/>
</svg>
